999
FreeCAD v0.20 29410 (Git)
  0
SECTION
  2
HEADER
  9
$ACADVER
  1
AC1014
  9
$ACADMAINTVER
 70
     9
  9
$DWGCODEPAGE
  3
ANSI_1252
  9
$TEXTSTYLE
  7
STANDARD
  9
$DIMSTYLE
  2
STANDARD
  9
$DIMTXSTY
  7
STANDARD
  9
$CMLSTYLE
  2
STANDARD
  9
$LUNITS
 70
2
  9
$INSUNITS
 70
4
  9
$PEXTMAX
 10
50
 20
50
 30
50
  9
$PEXTMIN
 10
0
 20
0
 30
0
  9
$HANDSEED
  5
FFFF
  0
ENDSEC
  0
SECTION
  2
CLASSES
  0
CLASS
  1
ACDBDICTIONARYWDFLT
  2
AcDbDictionaryWithDefault
  3
ObjectDBX Classes
 90
        0
280
     0
281
     0
  0
CLASS
  1
XRECORD
  2
AcDbXrecord
  3
ObjectDBX Classes
 90
        0
280
     0
281
     0
  0
CLASS
  1
LWPOLYLINE
  2
AcDbPolyline
  3
ObjectDBX Classes
 90
        0
280
     0
281
     1
  0
ENDSEC
  0
SECTION
  2
TABLES
  0
TABLE
  2
VPORT
  5
20
330
0
100
AcDbSymbolTable
 70
     1
  0
VPORT
  5
21
330
20
100
AcDbSymbolTableRecord
100
AcDbViewportTableRecord
  2
*ACTIVE
 70
     0
  0
ENDTAB
  0
TABLE
  2
LTYPE
  5
22
330
0
100
AcDbSymbolTable
 70
     1
  0
LTYPE
  5
23
330
21
100
AcDbSymbolTableRecord
100
AcDbLinetypeTableRecord
  2
BYBLOCK
 70
     0
  3

 72
    65
 73
     0
 40
0.0
  0
LTYPE
  5
24
330
21
100
AcDbSymbolTableRecord
100
AcDbLinetypeTableRecord
  2
BYLAYER
 70
     0
  3

 72
    65
 73
     0
 40
0.0
  0
LTYPE
  5
25
330
21
100
AcDbSymbolTableRecord
100
AcDbLinetypeTableRecord
  2
CONTINUOUS
 70
     0
  3
Solid line
 72
    65
 73
     0
 40
0.0
  0
ENDTAB
  0
TABLE
  2
LAYER
  5
A12
330
0
100
AcDbSymbolTable
 70
3
  0
LAYER
  5
A13
330
A12
100
AcDbSymbolTableRecord
100
AcDbLayerTableRecord
  2
0
 70
   0
 62
   7
  6
CONTINUOUS
  0
LAYER
  5
A14
330
A12
100
AcDbSymbolTableRecord
100
AcDbLayerTableRecord
  2
none
 70
    0
 62
    7
  6
CONTINUOUS
  0
LAYER
  5
A15
330
A12
100
AcDbSymbolTableRecord
100
AcDbLayerTableRecord
  2
Shape2DView
 70
    0
 62
    7
  6
CONTINUOUS
  0
ENDTAB
  0
TABLE
  2
STYLE
  5
70
330
0
100
AcDbSymbolTable
 70
     2
  0
STYLE
  5
71
330
70
100
AcDbSymbolTableRecord
100
AcDbTextStyleTableRecord
  2
STANDARD
 70
     0
 40
0.0
 41
1.0
 50
0.0
 71
     0
 42
2.5
  3
arial.ttf
  4

  0
STYLE
  5
72
330
70
100
AcDbSymbolTableRecord
100
AcDbTextStyleTableRecord
  2
ANNOTATIVE
 70
     0
 40
0.0
 41
1.0
 50
0.0
 71
     0
 42
2.5
  3
arial.ttf
  4

  0
ENDTAB
  0
TABLE
  2
VIEW
  5
73
330
0
100
AcDbSymbolTable
 70
     0
  0
ENDTAB
  0
TABLE
  2
UCS
  5
74
330
0
100
AcDbSymbolTable
 70
     0
  0
ENDTAB
  0
TABLE
  2
APPID
  5
75
330
0
100
AcDbSymbolTable
 70
     2
  0
APPID
  5
76
330
75
100
AcDbSymbolTableRecord
100
AcDbRegAppTableRecord
  2
ACAD
 70
     0
  0
APPID
  5
77
330
75
100
AcDbSymbolTableRecord
100
AcDbRegAppTableRecord
  2
ACADANNOTATIVE
 70
     0
  0
ENDTAB
  0
TABLE
  2
DIMSTYLE
  5
78
330
0
100
AcDbSymbolTable
 70
     2
  0
DIMSTYLE
105
79
330
78
100
AcDbSymbolTableRecord
100
AcDbDimStyleTableRecord
  2
STANDARD
 70
     0
  3

  4

  5

  6

  7

 40
0.0
 41
2.5
 42
0.625
 43
3.75
 44
1.25
 45
0.0
 46
0.0
 47
0.0
 48
0.0
140
2.5
141
2.5
142
0.0
143
0.03937007874016
144
1.0
145
0.0
146
1.0
147
0.625
 71
     0
 72
     0
 73
     0
 74
     0
 75
     0
 76
     0
 77
     1
 78
     8
170
     0
171
     3
172
     1
173
     0
174
     0
175
     0
176
     0
177
     0
178
     0
270
     2
271
     2
272
     2
273
     2
274
     3
340
71
275
     0
280
     0
281
     0
282
     0
283
     0
284
     8
285
     0
286
     0
287
     3
288
     0
  0
ENDTAB
  0
TABLE
  2
BLOCK_RECORD
  5
A01
330
0
100
AcDbSymbolTable
  70
5
  0
BLOCK_RECORD
  5
A02
330
A01
100
AcDbSymbolTableRecord
100
AcDbBlockTableRecord
  2
*MODEL_SPACE
  0
BLOCK_RECORD
  5
A03
330
A01
100
AcDbSymbolTableRecord
100
AcDbBlockTableRecord
  2
*PAPER_SPACE
  0
ENDTAB
  0
ENDSEC
  0
SECTION
  2
BLOCKS
  0
BLOCK
  5
A04
330
A02
100
AcDbEntity
  8
0
100
AcDbBlockBegin
  2
*MODEL_SPACE
 70
   0
 10
0
 20
0
 30
0
  3
*MODEL_SPACE
  1
 
  0
ENDBLK
  5
A05
330
A02
100
AcDbEntity
  8
0
100
AcDbBlockEnd
  0
BLOCK
  5
A06
330
A03
100
AcDbEntity
 67
1
  8
0
100
AcDbBlockBegin
  2
*PAPER_SPACE
 70
   0
 10
0
 20
0
 30
0
  3
*PAPER_SPACE
  1
 
  0
ENDBLK
  5
A07
330
A03
100
AcDbEntity
 67
    1
  8
0
100
AcDbBlockEnd
  0
ENDSEC
  0
SECTION
  2
ENTITIES
  0
CIRCLE
  5
A08
330
A02
100
AcDbEntity
  8
Shape2DView
100
AcDbCircle
 10
-18.2635
 20
16.2635
 40
6
  0
CIRCLE
  5
A09
330
A02
100
AcDbEntity
  8
Shape2DView
100
AcDbCircle
 10
-2
 20
23
 40
6
  0
CIRCLE
  5
A0A
330
A02
100
AcDbEntity
  8
Shape2DView
100
AcDbCircle
 10
14.2635
 20
16.2635
 40
6
  0
CIRCLE
  5
A0B
330
A02
100
AcDbEntity
  8
Shape2DView
100
AcDbCircle
 10
21
 20
-5.38845e-15
 40
6
  0
CIRCLE
  5
A0C
330
A02
100
AcDbEntity
  8
Shape2DView
100
AcDbCircle
 10
14.2635
 20
-16.2635
 40
6
  0
CIRCLE
  5
A0D
330
A02
100
AcDbEntity
  8
Shape2DView
100
AcDbCircle
 10
-25
 20
3.06162e-15
 40
6
  0
CIRCLE
  5
A0E
330
A02
100
AcDbEntity
  8
Shape2DView
100
AcDbCircle
 10
-18.2635
 20
-16.2635
 40
6
  0
CIRCLE
  5
A0F
330
A02
100
AcDbEntity
  8
Shape2DView
100
AcDbCircle
 10
-2
 20
-23
 40
6
  0
CIRCLE
  5
A10
330
A02
100
AcDbEntity
  8
Shape2DView
100
AcDbCircle
 10
-2
 20
2.44929e-16
 40
13.6
  0
SPLINE
  5
A11
330
A02
100
AcDbEntity
  8
Shape2DView
100
AcDbSpline
210
0
220
0
230
1
 70
9
 71
3
 72
497
 73
493
 74
0
 40
0
 40
0
 40
0
 40
0
 40
0.0078125
 40
0.0078125
 40
0.0078125
 40
0.0117188
 40
0.0117188
 40
0.0117188
 40
0.015625
 40
0.015625
 40
0.015625
 40
0.0234375
 40
0.0234375
 40
0.0234375
 40
0.03125
 40
0.03125
 40
0.03125
 40
0.0390625
 40
0.0390625
 40
0.0390625
 40
0.0429688
 40
0.0429688
 40
0.0429688
 40
0.046875
 40
0.046875
 40
0.046875
 40
0.0546875
 40
0.0546875
 40
0.0546875
 40
0.0625
 40
0.0625
 40
0.0625
 40
0.0703125
 40
0.0703125
 40
0.0703125
 40
0.078125
 40
0.078125
 40
0.078125
 40
0.0859375
 40
0.0859375
 40
0.0859375
 40
0.0898438
 40
0.0898438
 40
0.0898438
 40
0.09375
 40
0.09375
 40
0.09375
 40
0.101562
 40
0.101562
 40
0.101562
 40
0.109375
 40
0.109375
 40
0.109375
 40
0.117188
 40
0.117188
 40
0.117188
 40
0.121094
 40
0.121094
 40
0.121094
 40
0.125
 40
0.125
 40
0.125
 40
0.132812
 40
0.132812
 40
0.132812
 40
0.140625
 40
0.140625
 40
0.140625
 40
0.144531
 40
0.144531
 40
0.144531
 40
0.148438
 40
0.148438
 40
0.148438
 40
0.15625
 40
0.15625
 40
0.15625
 40
0.164062
 40
0.164062
 40
0.164062
 40
0.171875
 40
0.171875
 40
0.171875
 40
0.175781
 40
0.175781
 40
0.175781
 40
0.179688
 40
0.179688
 40
0.179688
 40
0.1875
 40
0.1875
 40
0.1875
 40
0.191406
 40
0.191406
 40
0.191406
 40
0.195312
 40
0.195312
 40
0.195312
 40
0.203125
 40
0.203125
 40
0.203125
 40
0.210938
 40
0.210938
 40
0.210938
 40
0.21875
 40
0.21875
 40
0.21875
 40
0.222656
 40
0.222656
 40
0.222656
 40
0.226562
 40
0.226562
 40
0.226562
 40
0.234375
 40
0.234375
 40
0.234375
 40
0.242188
 40
0.242188
 40
0.242188
 40
0.246094
 40
0.246094
 40
0.246094
 40
0.25
 40
0.25
 40
0.25
 40
0.253906
 40
0.253906
 40
0.253906
 40
0.257812
 40
0.257812
 40
0.257812
 40
0.265625
 40
0.265625
 40
0.265625
 40
0.273438
 40
0.273438
 40
0.273438
 40
0.277344
 40
0.277344
 40
0.277344
 40
0.28125
 40
0.28125
 40
0.28125
 40
0.289062
 40
0.289062
 40
0.289062
 40
0.296875
 40
0.296875
 40
0.296875
 40
0.304688
 40
0.304688
 40
0.304688
 40
0.308594
 40
0.308594
 40
0.308594
 40
0.3125
 40
0.3125
 40
0.3125
 40
0.320312
 40
0.320312
 40
0.320312
 40
0.324219
 40
0.324219
 40
0.324219
 40
0.328125
 40
0.328125
 40
0.328125
 40
0.335938
 40
0.335938
 40
0.335938
 40
0.34375
 40
0.34375
 40
0.34375
 40
0.351562
 40
0.351562
 40
0.351562
 40
0.355469
 40
0.355469
 40
0.355469
 40
0.359375
 40
0.359375
 40
0.359375
 40
0.367188
 40
0.367188
 40
0.367188
 40
0.375
 40
0.375
 40
0.375
 40
0.378906
 40
0.378906
 40
0.378906
 40
0.382812
 40
0.382812
 40
0.382812
 40
0.390625
 40
0.390625
 40
0.390625
 40
0.398438
 40
0.398438
 40
0.398438
 40
0.40625
 40
0.40625
 40
0.40625
 40
0.410156
 40
0.410156
 40
0.410156
 40
0.414062
 40
0.414062
 40
0.414062
 40
0.421875
 40
0.421875
 40
0.421875
 40
0.429688
 40
0.429688
 40
0.429688
 40
0.4375
 40
0.4375
 40
0.4375
 40
0.445312
 40
0.445312
 40
0.445312
 40
0.453125
 40
0.453125
 40
0.453125
 40
0.457031
 40
0.457031
 40
0.457031
 40
0.460938
 40
0.460938
 40
0.460938
 40
0.46875
 40
0.46875
 40
0.46875
 40
0.476562
 40
0.476562
 40
0.476562
 40
0.484375
 40
0.484375
 40
0.484375
 40
0.488281
 40
0.488281
 40
0.488281
 40
0.492188
 40
0.492188
 40
0.492188
 40
0.5
 40
0.5
 40
0.5
 40
0.507812
 40
0.507812
 40
0.507812
 40
0.511719
 40
0.511719
 40
0.511719
 40
0.515625
 40
0.515625
 40
0.515625
 40
0.523438
 40
0.523438
 40
0.523438
 40
0.53125
 40
0.53125
 40
0.53125
 40
0.539062
 40
0.539062
 40
0.539062
 40
0.542969
 40
0.542969
 40
0.542969
 40
0.546875
 40
0.546875
 40
0.546875
 40
0.554688
 40
0.554688
 40
0.554688
 40
0.5625
 40
0.5625
 40
0.5625
 40
0.570312
 40
0.570312
 40
0.570312
 40
0.578125
 40
0.578125
 40
0.578125
 40
0.585938
 40
0.585938
 40
0.585938
 40
0.589844
 40
0.589844
 40
0.589844
 40
0.59375
 40
0.59375
 40
0.59375
 40
0.601562
 40
0.601562
 40
0.601562
 40
0.609375
 40
0.609375
 40
0.609375
 40
0.617188
 40
0.617188
 40
0.617188
 40
0.621094
 40
0.621094
 40
0.621094
 40
0.625
 40
0.625
 40
0.625
 40
0.632812
 40
0.632812
 40
0.632812
 40
0.640625
 40
0.640625
 40
0.640625
 40
0.644531
 40
0.644531
 40
0.644531
 40
0.648438
 40
0.648438
 40
0.648438
 40
0.65625
 40
0.65625
 40
0.65625
 40
0.664062
 40
0.664062
 40
0.664062
 40
0.671875
 40
0.671875
 40
0.671875
 40
0.675781
 40
0.675781
 40
0.675781
 40
0.679688
 40
0.679688
 40
0.679688
 40
0.6875
 40
0.6875
 40
0.6875
 40
0.691406
 40
0.691406
 40
0.691406
 40
0.695312
 40
0.695312
 40
0.695312
 40
0.703125
 40
0.703125
 40
0.703125
 40
0.710938
 40
0.710938
 40
0.710938
 40
0.71875
 40
0.71875
 40
0.71875
 40
0.722656
 40
0.722656
 40
0.722656
 40
0.726562
 40
0.726562
 40
0.726562
 40
0.734375
 40
0.734375
 40
0.734375
 40
0.742188
 40
0.742188
 40
0.742188
 40
0.746094
 40
0.746094
 40
0.746094
 40
0.75
 40
0.75
 40
0.75
 40
0.753906
 40
0.753906
 40
0.753906
 40
0.757812
 40
0.757812
 40
0.757812
 40
0.765625
 40
0.765625
 40
0.765625
 40
0.773438
 40
0.773438
 40
0.773438
 40
0.777344
 40
0.777344
 40
0.777344
 40
0.78125
 40
0.78125
 40
0.78125
 40
0.789062
 40
0.789062
 40
0.789062
 40
0.796875
 40
0.796875
 40
0.796875
 40
0.804688
 40
0.804688
 40
0.804688
 40
0.808594
 40
0.808594
 40
0.808594
 40
0.8125
 40
0.8125
 40
0.8125
 40
0.820312
 40
0.820312
 40
0.820312
 40
0.824219
 40
0.824219
 40
0.824219
 40
0.828125
 40
0.828125
 40
0.828125
 40
0.835938
 40
0.835938
 40
0.835938
 40
0.84375
 40
0.84375
 40
0.84375
 40
0.851562
 40
0.851562
 40
0.851562
 40
0.855469
 40
0.855469
 40
0.855469
 40
0.859375
 40
0.859375
 40
0.859375
 40
0.867188
 40
0.867188
 40
0.867188
 40
0.875
 40
0.875
 40
0.875
 40
0.878906
 40
0.878906
 40
0.878906
 40
0.882812
 40
0.882812
 40
0.882812
 40
0.890625
 40
0.890625
 40
0.890625
 40
0.898438
 40
0.898438
 40
0.898438
 40
0.90625
 40
0.90625
 40
0.90625
 40
0.910156
 40
0.910156
 40
0.910156
 40
0.914062
 40
0.914062
 40
0.914062
 40
0.921875
 40
0.921875
 40
0.921875
 40
0.929688
 40
0.929688
 40
0.929688
 40
0.9375
 40
0.9375
 40
0.9375
 40
0.945312
 40
0.945312
 40
0.945312
 40
0.953125
 40
0.953125
 40
0.953125
 40
0.957031
 40
0.957031
 40
0.957031
 40
0.960938
 40
0.960938
 40
0.960938
 40
0.96875
 40
0.96875
 40
0.96875
 40
0.976562
 40
0.976562
 40
0.976562
 40
0.984375
 40
0.984375
 40
0.984375
 40
0.988281
 40
0.988281
 40
0.988281
 40
0.992188
 40
0.992188
 40
0.992188
 40
1
 40
1
 40
1
 40
1
 10
-35
 20
4.21885e-15
 30
0
 10
-35.0009
 20
-0.717528
 30
0
 10
-35.1076
 20
-1.42798
 30
0
 10
-35.3765
 20
-2.03576
 30
0
 10
-35.5115
 20
-2.34035
 30
0
 10
-35.6846
 20
-2.62232
 30
0
 10
-35.8956
 20
-2.88165
 30
0
 10
-36.105
 20
-3.14192
 30
0
 10
-36.3484
 20
-3.38156
 30
0
 10
-36.5991
 20
-3.61688
 30
0
 10
-37.1025
 20
-4.08566
 30
0
 10
-37.6186
 20
-4.55039
 30
0
 10
-37.9246
 20
-5.13275
 30
0
 10
-38.2376
 20
-5.7087
 30
0
 10
-38.3465
 20
-6.40184
 30
0
 10
-38.2787
 20
-7.1206
 30
0
 10
-38.2113
 20
-7.83702
 30
0
 10
-37.9861
 20
-8.56347
 30
0
 10
-37.6186
 20
-9.13731
 30
0
 10
-37.4338
 20
-9.42609
 30
0
 10
-37.2136
 20
-9.67432
 30
0
 10
-36.9579
 20
-9.88199
 30
0
 10
-36.7031
 20
-10.0894
 30
0
 10
-36.4141
 20
-10.253
 30
0
 10
-36.1052
 20
-10.3884
 30
0
 10
-35.4875
 20
-10.6598
 30
0
 10
-34.7958
 20
-10.8256
 30
0
 10
-34.197
 20
-11.124
 30
0
 10
-33.5941
 20
-11.4154
 30
0
 10
-33.0916
 20
-11.8576
 30
0
 10
-32.6973
 20
-12.4329
 30
0
 10
-32.304
 20
-13.0047
 30
0
 10
-31.9952
 20
-13.6834
 30
0
 10
-31.8137
 20
-14.3581
 30
0
 10
-31.6313
 20
-15.0357
 30
0
 10
-31.6102
 20
-15.709
 30
0
 10
-31.7765
 20
-16.3545
 30
0
 10
-31.9346
 20
-17.0018
 30
0
 10
-32.2688
 20
-17.6273
 30
0
 10
-32.4971
 20
-18.266
 30
0
 10
-32.611
 20
-18.5853
 30
0
 10
-32.6953
 20
-18.9082
 30
0
 10
-32.7256
 20
-19.2354
 30
0
 10
-32.7568
 20
-19.5633
 30
0
 10
-32.734
 20
-19.8928
 30
0
 10
-32.6572
 20
-20.2238
 30
0
 10
-32.5048
 20
-20.8822
 30
0
 10
-32.1366
 20
-21.542
 30
0
 10
-31.663
 20
-22.0884
 30
0
 10
-31.1883
 20
-22.6361
 30
0
 10
-30.6098
 20
-23.0479
 30
0
 10
-29.9795
 20
-23.2285
 30
0
 10
-29.3491
 20
-23.4189
 30
0
 10
-28.6621
 20
-23.3673
 30
0
 10
-27.9763
 20
-23.3037
 30
0
 10
-27.6334
 20
-23.2737
 30
0
 10
-27.2912
 20
-23.2468
 30
0
 10
-26.9559
 20
-23.2558
 30
0
 10
-26.62
 20
-23.2623
 30
0
 10
-26.2924
 20
-23.3111
 30
0
 10
-25.9731
 20
-23.4021
 30
0
 10
-25.3363
 20
-23.5845
 30
0
 10
-24.7321
 20
-23.9607
 30
0
 10
-24.1887
 20
-24.4291
 30
0
 10
-23.6469
 20
-24.8985
 30
0
 10
-23.1726
 20
-25.4463
 30
0
 10
-22.8773
 20
-26.045
 30
0
 10
-22.7294
 20
-26.3453
 30
0
 10
-22.6244
 20
-26.659
 30
0
 10
-22.5623
 20
-26.9863
 30
0
 10
-22.4989
 20
-27.3129
 30
0
 10
-22.4763
 20
-27.6519
 30
0
 10
-22.4668
 20
-27.9949
 30
0
 10
-22.4497
 20
-28.6811
 30
0
 10
-22.4673
 20
-29.3806
 30
0
 10
-22.2659
 20
-30.0071
 30
0
 10
-22.0736
 20
-30.6346
 30
0
 10
-21.6604
 20
-31.1916
 30
0
 10
-21.0971
 20
-31.6373
 30
0
 10
-20.5365
 20
-32.0817
 30
0
 10
-19.8513
 20
-32.4205
 30
0
 10
-19.178
 20
-32.5589
 30
0
 10
-18.8392
 20
-32.6287
 30
0
 10
-18.5058
 20
-32.6453
 30
0
 10
-18.1779
 20
-32.6087
 30
0
 10
-17.8511
 20
-32.5692
 30
0
 10
-17.5332
 20
-32.483
 30
0
 10
-17.2241
 20
-32.35
 30
0
 10
-16.6051
 20
-32.091
 30
0
 10
-16.0192
 20
-31.686
 30
0
 10
-15.4012
 20
-31.4218
 30
0
 10
-15.0929
 20
-31.2865
 30
0
 10
-14.775
 20
-31.1923
 30
0
 10
-14.4477
 20
-31.1393
 30
0
 10
-14.1195
 20
-31.0888
 30
0
 10
-13.7831
 20
-31.0811
 30
0
 10
-13.4387
 20
-31.1162
 30
0
 10
-12.7531
 20
-31.1861
 30
0
 10
-12.0395
 20
-31.3985
 30
0
 10
-11.4048
 20
-31.7009
 30
0
 10
-10.7678
 20
-32.0048
 30
0
 10
-10.2319
 20
-32.4215
 30
0
 10
-9.84684
 20
-32.9624
 30
0
 10
-9.45465
 20
-33.4984
 30
0
 10
-9.20689
 20
-34.1595
 30
0
 10
-8.8957
 20
-34.766
 30
0
 10
-8.73969
 20
-35.0687
 30
0
 10
-8.56487
 20
-35.3552
 30
0
 10
-8.35182
 20
-35.606
 30
0
 10
-8.13922
 20
-35.8582
 30
0
 10
-7.88901
 20
-36.072
 30
0
 10
-7.6012
 20
-36.2474
 30
0
 10
-7.02867
 20
-36.5965
 30
0
 10
-6.303
 20
-36.7845
 30
0
 10
-5.57816
 20
-36.8193
 30
0
 10
-4.85211
 20
-36.854
 30
0
 10
-4.14508
 20
-36.7254
 30
0
 10
-3.5732
 20
-36.4024
 30
0
 10
-3.28657
 20
-36.2397
 30
0
 10
-3.0276
 20
-36.0368
 30
0
 10
-2.7963
 20
-35.7938
 30
0
 10
-2.56335
 20
-35.5538
 30
0
 10
-2.35365
 20
-35.2819
 30
0
 10
-2.1464
 20
-35.0072
 30
0
 10
-1.93914
 20
-34.7325
 30
0
 10
-1.73328
 20
-34.456
 30
0
 10
-1.50759
 20
-34.2058
 30
0
 10
-1.28374
 20
-33.953
 30
0
 10
-1.035
 20
-33.7333
 30
0
 10
-0.761369
 20
-33.5466
 30
0
 10
-0.214474
 20
-33.1752
 30
0
 10
0.456738
 20
-32.9599
 30
0
 10
1.16548
 20
-32.8551
 30
0
 10
1.87352
 20
-32.7522
 30
0
 10
2.60378
 20
-32.7496
 30
0
 10
3.25576
 20
-32.9083
 30
0
 10
3.58286
 20
-32.988
 30
0
 10
3.89123
 20
-33.109
 30
0
 10
4.18087
 20
-33.2714
 30
0
 10
4.47077
 20
-33.4328
 30
0
 10
4.74158
 20
-33.6348
 30
0
 10
5.00445
 20
-33.8539
 30
0
 10
5.52942
 20
-34.2926
 30
0
 10
6.03076
 20
-34.7872
 30
0
 10
6.62056
 20
-35.082
 30
0
 10
7.20512
 20
-35.3841
 30
0
 10
7.8844
 20
-35.4802
 30
0
 10
8.59165
 20
-35.3826
 30
0
 10
9.29563
 20
-35.2867
 30
0
 10
10.0155
 20
-35.0219
 30
0
 10
10.5888
 20
-34.6319
 30
0
 10
10.8776
 20
-34.4358
 30
0
 10
11.1243
 20
-34.2076
 30
0
 10
11.3289
 20
-33.9474
 30
0
 10
11.5309
 20
-33.6863
 30
0
 10
11.6905
 20
-33.3991
 30
0
 10
11.8078
 20
-33.0857
 30
0
 10
12.0479
 20
-32.4629
 30
0
 10
12.1404
 20
-31.757
 30
0
 10
12.3421
 20
-31.1126
 30
0
 10
12.44
 20
-30.7885
 30
0
 10
12.5731
 20
-30.484
 30
0
 10
12.7416
 20
-30.199
 30
0
 10
12.9127
 20
-29.9152
 30
0
 10
13.1221
 20
-29.6541
 30
0
 10
13.3696
 20
-29.4157
 30
0
 10
13.8625
 20
-28.9409
 30
0
 10
14.4892
 20
-28.543
 30
0
 10
15.1355
 20
-28.2562
 30
0
 10
15.7843
 20
-27.9694
 30
0
 10
16.4531
 20
-27.823
 30
0
 10
17.1131
 20
-27.8755
 30
0
 10
17.7743
 20
-27.9193
 30
0
 10
18.4316
 20
-28.1655
 30
0
 10
19.0903
 20
-28.3518
 30
0
 10
19.4196
 20
-28.4439
 30
0
 10
19.7494
 20
-28.5162
 30
0
 10
20.0786
 20
-28.5388
 30
0
 10
20.4085
 20
-28.5631
 30
0
 10
20.7356
 20
-28.5344
 30
0
 10
21.06
 20
-28.4526
 30
0
 10
21.7057
 20
-28.2896
 30
0
 10
22.3377
 20
-27.8994
 30
0
 10
22.8643
 20
-27.3976
 30
0
 10
23.3913
 20
-26.8953
 30
0
 10
23.7959
 20
-26.2912
 30
0
 10
23.9675
 20
-25.655
 30
0
 10
24.0533
 20
-25.3355
 30
0
 10
24.0888
 20
-25.0091
 30
0
 10
24.0742
 20
-24.6758
 30
0
 10
24.0623
 20
-24.3432
 30
0
 10
24.0074
 20
-24.006
 30
0
 10
23.9433
 20
-23.6683
 30
0
 10
23.8113
 20
-22.9925
 30
0
 10
23.6684
 20
-22.3159
 30
0
 10
23.7427
 20
-21.658
 30
0
 10
23.8079
 20
-21.0007
 30
0
 10
24.0738
 20
-20.3553
 30
0
 10
24.4566
 20
-19.7518
 30
0
 10
24.8401
 20
-19.1503
 30
0
 10
25.3183
 20
-18.5919
 30
0
 10
25.8623
 20
-18.1921
 30
0
 10
26.1353
 20
-17.9914
 30
0
 10
26.4267
 20
-17.8323
 30
0
 10
26.7366
 20
-17.7146
 30
0
 10
27.0459
 20
-17.5964
 30
0
 10
27.3735
 20
-17.5213
 30
0
 10
27.7102
 20
-17.4679
 30
0
 10
28.3833
 20
-17.3612
 30
0
 10
29.0905
 20
-17.3306
 30
0
 10
29.7153
 20
-17.1133
 30
0
 10
30.3419
 20
-16.9045
 30
0
 10
30.8829
 20
-16.4936
 30
0
 10
31.2997
 20
-15.92
 30
0
 10
31.7157
 20
-15.3507
 30
0
 10
32.0193
 20
-14.6449
 30
0
 10
32.139
 20
-13.9558
 30
0
 10
32.2619
 20
-13.263
 30
0
 10
32.1726
 20
-12.5952
 30
0
 10
31.8852
 20
-11.9971
 30
0
 10
31.605
 20
-11.3948
 30
0
 10
31.1468
 20
-10.8518
 30
0
 10
30.7882
 20
-10.2758
 30
0
 10
30.6085
 20
-9.98785
 30
0
 10
30.4553
 20
-9.69059
 30
0
 10
30.3474
 20
-9.37779
 30
0
 10
30.2392
 20
-9.06476
 30
0
 10
30.1739
 20
-8.73801
 30
0
 10
30.1515
 20
-8.39755
 30
0
 10
30.1068
 20
-7.71944
 30
0
 10
30.2166
 20
-6.98838
 30
0
 10
30.4213
 20
-6.30802
 30
0
 10
30.6279
 20
-5.62625
 30
0
 10
30.9477
 20
-5.01355
 30
0
 10
31.4108
 20
-4.54194
 30
0
 10
31.8681
 20
-4.0633
 30
0
 10
32.4797
 20
-3.72925
 30
0
 10
33.0656
 20
-3.37069
 30
0
 10
33.3574
 20
-3.19039
 30
0
 10
33.6387
 20
-3.00006
 30
0
 10
33.8851
 20
-2.77866
 30
0
 10
34.1336
 20
-2.55837
 30
0
 10
34.3419
 20
-2.30483
 30
0
 10
34.5101
 20
-2.01806
 30
0
 10
34.8447
 20
-1.44678
 30
0
 10
34.9999
 20
-0.728182
 30
0
 10
35
 20
1.3436e-07
 30
0
 10
34.9999
 20
0.728182
 30
0
 10
34.8447
 20
1.44678
 30
0
 10
34.5101
 20
2.01806
 30
0
 10
34.3419
 20
2.30483
 30
0
 10
34.1336
 20
2.55837
 30
0
 10
33.8851
 20
2.77866
 30
0
 10
33.6387
 20
3.00006
 30
0
 10
33.3574
 20
3.19039
 30
0
 10
33.0656
 20
3.37069
 30
0
 10
32.4797
 20
3.72925
 30
0
 10
31.8681
 20
4.0633
 30
0
 10
31.4108
 20
4.54193
 30
0
 10
30.9477
 20
5.01355
 30
0
 10
30.6279
 20
5.62625
 30
0
 10
30.4213
 20
6.30802
 30
0
 10
30.2166
 20
6.98838
 30
0
 10
30.1068
 20
7.71944
 30
0
 10
30.1515
 20
8.39755
 30
0
 10
30.1739
 20
8.73801
 30
0
 10
30.2392
 20
9.06475
 30
0
 10
30.3474
 20
9.37779
 30
0
 10
30.4553
 20
9.69059
 30
0
 10
30.6085
 20
9.98785
 30
0
 10
30.7882
 20
10.2758
 30
0
 10
31.1468
 20
10.8518
 30
0
 10
31.605
 20
11.3948
 30
0
 10
31.8852
 20
11.9971
 30
0
 10
32.1726
 20
12.5952
 30
0
 10
32.2619
 20
13.263
 30
0
 10
32.139
 20
13.9558
 30
0
 10
32.0193
 20
14.6449
 30
0
 10
31.7157
 20
15.3507
 30
0
 10
31.2997
 20
15.92
 30
0
 10
30.8829
 20
16.4936
 30
0
 10
30.3419
 20
16.9045
 30
0
 10
29.7153
 20
17.1133
 30
0
 10
29.0905
 20
17.3306
 30
0
 10
28.3833
 20
17.3612
 30
0
 10
27.7102
 20
17.4679
 30
0
 10
27.3735
 20
17.5213
 30
0
 10
27.0459
 20
17.5964
 30
0
 10
26.7366
 20
17.7146
 30
0
 10
26.4267
 20
17.8323
 30
0
 10
26.1353
 20
17.9914
 30
0
 10
25.8623
 20
18.1921
 30
0
 10
25.3183
 20
18.5919
 30
0
 10
24.8401
 20
19.1503
 30
0
 10
24.4566
 20
19.7518
 30
0
 10
24.0738
 20
20.3553
 30
0
 10
23.8079
 20
21.0007
 30
0
 10
23.7427
 20
21.658
 30
0
 10
23.6684
 20
22.3159
 30
0
 10
23.8113
 20
22.9925
 30
0
 10
23.9433
 20
23.6683
 30
0
 10
24.0074
 20
24.006
 30
0
 10
24.0623
 20
24.3432
 30
0
 10
24.0742
 20
24.6758
 30
0
 10
24.0888
 20
25.0091
 30
0
 10
24.0533
 20
25.3355
 30
0
 10
23.9675
 20
25.655
 30
0
 10
23.7959
 20
26.2912
 30
0
 10
23.3913
 20
26.8953
 30
0
 10
22.8643
 20
27.3976
 30
0
 10
22.3377
 20
27.8994
 30
0
 10
21.7057
 20
28.2896
 30
0
 10
21.06
 20
28.4526
 30
0
 10
20.7356
 20
28.5344
 30
0
 10
20.4085
 20
28.5631
 30
0
 10
20.0786
 20
28.5388
 30
0
 10
19.7494
 20
28.5162
 30
0
 10
19.4196
 20
28.4439
 30
0
 10
19.0903
 20
28.3518
 30
0
 10
18.4316
 20
28.1655
 30
0
 10
17.7743
 20
27.9193
 30
0
 10
17.1131
 20
27.8755
 30
0
 10
16.4531
 20
27.823
 30
0
 10
15.7843
 20
27.9694
 30
0
 10
15.1355
 20
28.2562
 30
0
 10
14.4892
 20
28.543
 30
0
 10
13.8625
 20
28.9409
 30
0
 10
13.3696
 20
29.4157
 30
0
 10
13.1221
 20
29.6541
 30
0
 10
12.9127
 20
29.9152
 30
0
 10
12.7416
 20
30.199
 30
0
 10
12.5731
 20
30.484
 30
0
 10
12.44
 20
30.7885
 30
0
 10
12.3421
 20
31.1126
 30
0
 10
12.1404
 20
31.757
 30
0
 10
12.0479
 20
32.4629
 30
0
 10
11.8078
 20
33.0857
 30
0
 10
11.6905
 20
33.3991
 30
0
 10
11.5309
 20
33.6863
 30
0
 10
11.3289
 20
33.9474
 30
0
 10
11.1243
 20
34.2076
 30
0
 10
10.8776
 20
34.4358
 30
0
 10
10.5888
 20
34.6319
 30
0
 10
10.0155
 20
35.0219
 30
0
 10
9.29563
 20
35.2867
 30
0
 10
8.59165
 20
35.3826
 30
0
 10
7.8844
 20
35.4802
 30
0
 10
7.20512
 20
35.3841
 30
0
 10
6.62056
 20
35.082
 30
0
 10
6.03076
 20
34.7872
 30
0
 10
5.52943
 20
34.2926
 30
0
 10
5.00445
 20
33.8539
 30
0
 10
4.74158
 20
33.6348
 30
0
 10
4.47078
 20
33.4328
 30
0
 10
4.18088
 20
33.2714
 30
0
 10
3.89123
 20
33.109
 30
0
 10
3.58286
 20
32.988
 30
0
 10
3.25576
 20
32.9083
 30
0
 10
2.60378
 20
32.7496
 30
0
 10
1.87352
 20
32.7522
 30
0
 10
1.16548
 20
32.8551
 30
0
 10
0.456738
 20
32.9599
 30
0
 10
-0.214473
 20
33.1752
 30
0
 10
-0.761367
 20
33.5466
 30
0
 10
-1.035
 20
33.7333
 30
0
 10
-1.28374
 20
33.953
 30
0
 10
-1.50759
 20
34.2058
 30
0
 10
-1.73327
 20
34.456
 30
0
 10
-1.93914
 20
34.7325
 30
0
 10
-2.1464
 20
35.0072
 30
0
 10
-2.35365
 20
35.2819
 30
0
 10
-2.56335
 20
35.5538
 30
0
 10
-2.7963
 20
35.7938
 30
0
 10
-3.0276
 20
36.0368
 30
0
 10
-3.28657
 20
36.2397
 30
0
 10
-3.5732
 20
36.4024
 30
0
 10
-4.14508
 20
36.7254
 30
0
 10
-4.85211
 20
36.854
 30
0
 10
-5.57816
 20
36.8193
 30
0
 10
-6.303
 20
36.7845
 30
0
 10
-7.02867
 20
36.5965
 30
0
 10
-7.6012
 20
36.2474
 30
0
 10
-7.88902
 20
36.072
 30
0
 10
-8.13922
 20
35.8582
 30
0
 10
-8.35182
 20
35.606
 30
0
 10
-8.56487
 20
35.3552
 30
0
 10
-8.73969
 20
35.0687
 30
0
 10
-8.8957
 20
34.766
 30
0
 10
-9.20688
 20
34.1595
 30
0
 10
-9.45465
 20
33.4984
 30
0
 10
-9.84684
 20
32.9624
 30
0
 10
-10.2319
 20
32.4215
 30
0
 10
-10.7678
 20
32.0048
 30
0
 10
-11.4048
 20
31.7009
 30
0
 10
-12.0395
 20
31.3985
 30
0
 10
-12.7531
 20
31.1861
 30
0
 10
-13.4387
 20
31.1162
 30
0
 10
-13.7831
 20
31.0811
 30
0
 10
-14.1195
 20
31.0888
 30
0
 10
-14.4477
 20
31.1393
 30
0
 10
-14.775
 20
31.1923
 30
0
 10
-15.0929
 20
31.2865
 30
0
 10
-15.4012
 20
31.4218
 30
0
 10
-16.0192
 20
31.686
 30
0
 10
-16.6051
 20
32.091
 30
0
 10
-17.2241
 20
32.35
 30
0
 10
-17.5332
 20
32.483
 30
0
 10
-17.8511
 20
32.5692
 30
0
 10
-18.1779
 20
32.6087
 30
0
 10
-18.5058
 20
32.6453
 30
0
 10
-18.8392
 20
32.6287
 30
0
 10
-19.178
 20
32.5589
 30
0
 10
-19.8513
 20
32.4205
 30
0
 10
-20.5365
 20
32.0817
 30
0
 10
-21.0971
 20
31.6373
 30
0
 10
-21.6604
 20
31.1916
 30
0
 10
-22.0736
 20
30.6346
 30
0
 10
-22.2659
 20
30.0071
 30
0
 10
-22.4673
 20
29.3806
 30
0
 10
-22.4497
 20
28.6811
 30
0
 10
-22.4668
 20
27.9949
 30
0
 10
-22.4763
 20
27.6519
 30
0
 10
-22.4989
 20
27.3129
 30
0
 10
-22.5623
 20
26.9863
 30
0
 10
-22.6244
 20
26.659
 30
0
 10
-22.7294
 20
26.3453
 30
0
 10
-22.8773
 20
26.045
 30
0
 10
-23.1726
 20
25.4463
 30
0
 10
-23.6469
 20
24.8985
 30
0
 10
-24.1887
 20
24.4291
 30
0
 10
-24.7321
 20
23.9607
 30
0
 10
-25.3363
 20
23.5845
 30
0
 10
-25.9731
 20
23.4021
 30
0
 10
-26.2924
 20
23.3111
 30
0
 10
-26.62
 20
23.2623
 30
0
 10
-26.9559
 20
23.2558
 30
0
 10
-27.2912
 20
23.2468
 30
0
 10
-27.6334
 20
23.2737
 30
0
 10
-27.9763
 20
23.3037
 30
0
 10
-28.6621
 20
23.3673
 30
0
 10
-29.3491
 20
23.4189
 30
0
 10
-29.9795
 20
23.2285
 30
0
 10
-30.6098
 20
23.0479
 30
0
 10
-31.1883
 20
22.6361
 30
0
 10
-31.663
 20
22.0884
 30
0
 10
-32.1366
 20
21.542
 30
0
 10
-32.5048
 20
20.8822
 30
0
 10
-32.6572
 20
20.2238
 30
0
 10
-32.734
 20
19.8928
 30
0
 10
-32.7568
 20
19.5633
 30
0
 10
-32.7256
 20
19.2354
 30
0
 10
-32.6953
 20
18.9082
 30
0
 10
-32.611
 20
18.5853
 30
0
 10
-32.4971
 20
18.266
 30
0
 10
-32.2688
 20
17.6273
 30
0
 10
-31.9346
 20
17.0018
 30
0
 10
-31.7765
 20
16.3545
 30
0
 10
-31.6102
 20
15.709
 30
0
 10
-31.6313
 20
15.0357
 30
0
 10
-31.8137
 20
14.3581
 30
0
 10
-31.9952
 20
13.6834
 30
0
 10
-32.304
 20
13.0047
 30
0
 10
-32.6973
 20
12.4329
 30
0
 10
-33.0916
 20
11.8576
 30
0
 10
-33.5941
 20
11.4154
 30
0
 10
-34.197
 20
11.124
 30
0
 10
-34.7958
 20
10.8256
 30
0
 10
-35.4875
 20
10.6598
 30
0
 10
-36.1052
 20
10.3884
 30
0
 10
-36.4141
 20
10.253
 30
0
 10
-36.7031
 20
10.0894
 30
0
 10
-36.9579
 20
9.88199
 30
0
 10
-37.2136
 20
9.67432
 30
0
 10
-37.4338
 20
9.42609
 30
0
 10
-37.6186
 20
9.13731
 30
0
 10
-37.9861
 20
8.56347
 30
0
 10
-38.2113
 20
7.83702
 30
0
 10
-38.2787
 20
7.1206
 30
0
 10
-38.3465
 20
6.40184
 30
0
 10
-38.2376
 20
5.7087
 30
0
 10
-37.9246
 20
5.13275
 30
0
 10
-37.6186
 20
4.55039
 30
0
 10
-37.1025
 20
4.08567
 30
0
 10
-36.5991
 20
3.61688
 30
0
 10
-36.3484
 20
3.38156
 30
0
 10
-36.105
 20
3.14192
 30
0
 10
-35.8956
 20
2.88165
 30
0
 10
-35.6846
 20
2.62232
 30
0
 10
-35.5115
 20
2.34036
 30
0
 10
-35.3765
 20
2.03576
 30
0
 10
-35.1076
 20
1.42798
 30
0
 10
-35.0009
 20
0.717528
 30
0
 10
-35
 20
4.21885e-15
 30
0
  0
ENDSEC
  0
SECTION
  2
OBJECTS
  0
DICTIONARY
  5
F000
330
0
100
AcDbDictionary
  3
ACAD_GROUP
350
F001
  0
DICTIONARY
  5
F001
330
F000
100
AcDbDictionary
  0
ENDSEC
  0
EOF